<?xml version="1.0" encoding="UTF-8"?>
<svg version="1.1" xmlns="http://www.w3.org/2000/svg" width="500" height="500">
<path d="M0 0 C2.25 1.75 2.25 1.75 3.125 3.9375 C3.16625 4.535625 3.2075 5.13375 3.25 5.75 C3.91 5.75 4.57 5.75 5.25 5.75 C7.23770178 12.38177237 7.55679354 18.47067899 7.55078125 25.37109375 C7.55506638 26.4704274 7.5593515 27.56976105 7.56376648 28.70240784 C7.56948686 31.01782546 7.57002703 33.33326104 7.56567383 35.64868164 C7.562513 39.17300315 7.58600587 42.6964851 7.61132812 46.22070312 C7.6136014 48.47916562 7.61430448 50.73763035 7.61328125 52.99609375 C7.622491 54.04010849 7.63170074 55.08412323 7.64118958 56.15977478 C7.59635754 63.31814979 6.46249444 69.32501112 3.25 75.75 C2.59 75.75 1.93 75.75 1.25 75.75 C1.25 76.41 1.25 77.07 1.25 77.75 C-1.75 79.75 -1.75 79.75 -4.75 79.75 C-4.75 81.73 -4.75 83.71 -4.75 85.75 C-2.11 85.75 0.53 85.75 3.25 85.75 C3.25 89.38 3.25 93.01 3.25 96.75 C-0.67533048 98.71266524 -5.46067672 98.09140779 -9.75 97.75 C-14.02998675 96.05583858 -15.88442977 93.92532385 -17.75 89.75 C-18.06495655 88.08757719 -18.35448718 86.42023053 -18.625 84.75 C-19.47167981 79.94028949 -21.04255478 78.00531776 -24.75 74.75 C-28.86888768 68.90339925 -28.2176305 62.40053034 -28.21875 55.5390625 C-28.22636353 54.25695892 -28.23397705 52.97485535 -28.24182129 51.65390015 C-28.25522994 48.94560988 -28.25685169 46.23761093 -28.25097656 43.52929688 C-28.24508719 40.07700803 -28.27565374 36.62612885 -28.31609344 33.17411232 C-28.34832817 29.8582202 -28.34385403 26.54261045 -28.34375 23.2265625 C-28.36014526 21.99612213 -28.37654053 20.76568176 -28.39343262 19.49795532 C-28.33603207 12.33475262 -27.63613176 7.20936572 -22.75 1.75 C-16.6541764 -3.12665888 -7.06802311 -2.3560077 0 0 Z M-11.75 10.75 C-13.9669323 12.54823929 -13.9669323 12.54823929 -13.99050903 15.00259399 C-13.98606781 15.93969208 -13.98162659 16.87679016 -13.97705078 17.84228516 C-13.97689972 18.90323395 -13.97674866 19.96418274 -13.97659302 21.05728149 C-13.96627045 22.20626923 -13.95594788 23.35525696 -13.9453125 24.5390625 C-13.9424826 25.71262299 -13.93965271 26.88618347 -13.93673706 28.0953064 C-13.92551355 31.85530662 -13.90040492 35.61507139 -13.875 39.375 C-13.86497301 41.9192674 -13.85584668 44.46353852 -13.84765625 47.0078125 C-13.82556714 53.2552891 -13.79206824 59.50262773 -13.75 65.75 C-13.09 65.75 -12.43 65.75 -11.75 65.75 C-11.75 66.41 -11.75 67.07 -11.75 67.75 C-10.43 67.09 -9.11 66.43 -7.75 65.75 C-7.7247101 58.23861406 -7.70715859 50.72723903 -7.69506836 43.21582031 C-7.69002983 40.65884999 -7.68319893 38.10188257 -7.67456055 35.54492188 C-7.66247398 31.87629483 -7.65676699 28.20770577 -7.65234375 24.5390625 C-7.64718246 23.39007477 -7.64202118 22.24108704 -7.63670349 21.05728149 C-7.63662796 19.9963327 -7.63655243 18.93538391 -7.63647461 17.84228516 C-7.634254 16.90518707 -7.63203339 15.96808899 -7.62974548 15.00259399 C-7.60172957 12.71412698 -7.60172957 12.71412698 -8.75 10.75 C-9.74 10.75 -10.73 10.75 -11.75 10.75 Z " fill="#E8E8E8" transform="translate(144.75,180.25)"/>
<path d="M0 0 C4.95 0 9.9 0 15 0 C17.22059792 7.84698093 19.06747741 15.69684049 20.6875 23.6875 C21.450625 27.420625 22.21375 31.15375 23 35 C23.33 23.45 23.66 11.9 24 0 C28.29 0 32.58 0 37 0 C37 26.4 37 52.8 37 80 C32.38 80 27.76 80 23 80 C20.11143574 69.37421004 17.48259067 58.72833824 15 48 C14.67 58.56 14.34 69.12 14 80 C9.71 80 5.42 80 1 80 C-0.7082941 78.2917059 -0.11971926 76.13995623 -0.12442017 73.86213684 C-0.12082489 73.12702377 -0.11722961 72.39191071 -0.11352539 71.63452148 C-0.11367142 70.86384338 -0.11381744 70.09316528 -0.1139679 69.2991333 C-0.1132686 66.73975861 -0.10547545 64.1804558 -0.09765625 61.62109375 C-0.09579213 59.85132385 -0.0943682 58.08155344 -0.09336853 56.31178284 C-0.08954288 51.64448634 -0.0797122 46.97722077 -0.06866455 42.30993652 C-0.05845144 37.55102965 -0.05387113 32.79211779 -0.04882812 28.03320312 C-0.03808997 18.68878629 -0.0204928 9.34440055 0 0 Z " fill="#E8E8E8" transform="translate(324,180)"/>
<path d="M0 0 C4.62 0 9.24 0 14 0 C14.33 22.44 14.66 44.88 15 68 C16.98 67.01 16.98 67.01 19 66 C19.33 44.22 19.66 22.44 20 0 C24.62 0 29.24 0 34 0 C34.09066017 8.58028731 34.16392162 17.16019719 34.20724869 25.74083614 C34.22805198 29.72592518 34.25623497 33.71066724 34.30175781 37.69555664 C34.34547727 41.54704217 34.36919159 45.39819567 34.37950897 49.24991035 C34.38685389 50.71342756 34.40119607 52.17692826 34.42292023 53.64030266 C34.53953046 61.82695377 34.35295118 68.81004196 30 76 C29.34 76 28.68 76 28 76 C28 76.66 28 77.32 28 78 C22.02990882 81.0485572 16.44564763 82.41934438 9.87109375 80.3203125 C8.21542787 79.61790879 6.60175313 78.81791649 5 78 C5 77.34 5 76.68 5 76 C4.34 76 3.68 76 3 76 C-0.76167777 68.32912769 -0.38413433 60.68851251 -0.29296875 52.34375 C-0.2873649 50.8306114 -0.28309854 49.31746731 -0.28010559 47.80432129 C-0.26871877 43.84554693 -0.23930579 39.88710926 -0.20599365 35.9284668 C-0.17515886 31.87944084 -0.16157176 27.83035983 -0.14648438 23.78125 C-0.11442915 15.85399588 -0.06171273 7.92707877 0 0 Z " fill="#EAEAEA" transform="translate(280,180)"/>
<path d="M0 0 C4.62 0 9.24 0 14 0 C14 22.44 14 44.88 14 68 C15.32 68 16.64 68 18 68 C18.33 45.56 18.66 23.12 19 0 C23.62 0 28.24 0 33 0 C33.22177888 8.44956619 33.4255575 16.89899532 33.59840012 25.34968472 C33.67937739 29.27442277 33.76797739 33.19866864 33.87451172 37.12280273 C33.97719296 40.91565757 34.05917937 44.70846552 34.12732697 48.50209236 C34.15675958 49.94339703 34.19342548 51.38457421 34.2377243 52.82549858 C34.5034816 61.65127518 34.58378983 69.74249102 28.48895264 76.73313904 C27 78 27 78 25 78 C25 78.66 25 79.32 25 80 C17.77966406 82.02104211 11.58771753 81.55736747 5 78 C2.47230947 75.99527993 1.19966338 73.98402681 0 71 C-0.24050903 67.82354736 -0.24050903 67.82354736 -0.22705078 64.02832031 C-0.22734283 63.3352327 -0.22763489 62.64214508 -0.22793579 61.92805481 C-0.22654608 59.64461608 -0.21100206 57.3615065 -0.1953125 55.078125 C-0.19158109 53.49200621 -0.18873472 51.90588511 -0.18673706 50.31976318 C-0.17911068 46.15059007 -0.15947078 41.98155689 -0.1373291 37.81243896 C-0.11684921 33.55596815 -0.10773076 29.29947466 -0.09765625 25.04296875 C-0.07622389 16.69524121 -0.0410499 8.34765415 0 0 Z " fill="#EAEAEA" transform="translate(162,180)"/>
<path d="M0 0 C1.12148438 -0.02578125 2.24296875 -0.0515625 3.3984375 -0.078125 C8.14056164 0.40412491 10.64795033 2.2186698 13.875 5.625 C17.92614806 11.7017221 16.69584135 19.23670682 16.625 26.25 C12.005 26.25 7.385 26.25 2.625 26.25 C2.13 19.815 2.13 19.815 1.625 13.25 C0.635 12.92 -0.355 12.59 -1.375 12.25 C-1.57690089 18.60987804 -1.0027833 24.10221129 0.625 30.25 C1.285 30.25 1.945 30.25 2.625 30.25 C8.34250137 37.17583928 16.25513991 47.00349768 16.625 56.25 C16.67398438 57.14589844 16.72296875 58.04179687 16.7734375 58.96484375 C16.99299794 65.66143704 16.24420872 71.07615088 13.625 77.25 C12.965 77.25 12.305 77.25 11.625 77.25 C11.625 77.91 11.625 78.57 11.625 79.25 C6.07969698 82.75451891 -1.09124445 81.92692252 -7.375 81.25 C-10.88000797 79.71998782 -12.55134185 77.46587632 -14.6875 74.3125 C-16.87735338 67.74293985 -16.45107724 61.09695173 -16.375 54.25 C-11.755 54.25 -7.135 54.25 -2.375 54.25 C-2.045 58.87 -1.715 63.49 -1.375 68.25 C0.11 67.755 0.11 67.755 1.625 67.25 C2.16915041 60.50253487 1.21357519 56.51376612 -2.0859375 50.609375 C-3.39521373 48.21300275 -4.40712655 45.80084404 -5.375 43.25 C-6.035 43.25 -6.695 43.25 -7.375 43.25 C-8.035 41.6 -8.695 39.95 -9.375 38.25 C-10.035 38.25 -10.695 38.25 -11.375 38.25 C-12.0259259 37.00264433 -12.67051669 35.75198168 -13.3125 34.5 C-13.67214844 33.80390625 -14.03179687 33.1078125 -14.40234375 32.390625 C-16.31338044 28.18480931 -16.53562584 24.48660513 -16.5625 19.875 C-16.57667969 18.77414063 -16.59085937 17.67328125 -16.60546875 16.5390625 C-16.13792008 9.86658823 -13.8599532 5.9537314 -9.375 1.25 C-6.07164934 0.14888311 -3.47667863 0.04773472 0 0 Z " fill="#E8E8E8" transform="translate(421.375,178.75)"/>
<path d="M0 0 C0.33 0.66 0.66 1.32 1 2 C8.26 2 15.52 2 23 2 C23 6.29 23 10.58 23 15 C19.37 15.33 15.74 15.66 12 16 C11.67 22.27 11.34 28.54 11 35 C14.63 35 18.26 35 22 35 C22 39.29 22 43.58 22 48 C18.37 48 14.74 48 11 48 C11 54.6 11 61.2 11 68 C15.29 68 19.58 68 24 68 C24 72.62 24 77.24 24 82 C15.09 82 6.18 82 -3 82 C-3.02505615 79.71344482 -3.0501123 77.42688965 -3.07592773 75.07104492 C-3.15933738 67.5232858 -3.24803158 59.97559548 -3.33933926 52.42792797 C-3.3945458 47.85098367 -3.44796222 43.27403295 -3.49731445 38.69702148 C-3.5449914 34.28144544 -3.5973355 29.86594732 -3.65294075 25.45046425 C-3.67334919 23.76435596 -3.69206478 22.07822631 -3.70907402 20.39208031 C-3.73315145 18.03368779 -3.76320145 15.6754424 -3.79467773 13.31713867 C-3.8004332 12.61726837 -3.80618866 11.91739807 -3.81211853 11.19631958 C-3.85779654 8.19306117 -4.04208292 5.87375125 -5 3 C-3.35 2.01 -1.7 1.02 0 0 Z " fill="#F8F8F8" transform="translate(85,178)"/>
<path d="M0 0 C8.58 0 17.16 0 26 0 C26 4.29 26 8.58 26 13 C22.04 13 18.08 13 14 13 C14 19.6 14 26.2 14 33 C17.3 33 20.6 33 24 33 C24 37.29 24 41.58 24 46 C20.7 46 17.4 46 14 46 C14 52.6 14 59.2 14 66 C17.96 66 21.92 66 26 66 C26 70.62 26 75.24 26 80 C17.42 80 8.84 80 0 80 C0 53.6 0 27.2 0 0 Z " fill="#EAEAEA" transform="translate(372,180)"/>
<path d="M0 0 C10.23 0 20.46 0 31 0 C31 4.29 31 8.58 31 13 C28.03 13 25.06 13 22 13 C22 35.11 22 57.22 22 80 C17.38 80 12.76 80 8 80 C8 57.89 8 35.78 8 13 C5.36 13 2.72 13 0 13 C0 8.71 0 4.42 0 0 Z " fill="#EAEAEA" transform="translate(242,180)"/>
<path d="M0 0 C6.27 0 12.54 0 19 0 C19.02485915 7.20418043 19.04293502 14.40833547 19.05493164 21.61254883 C19.05993694 24.05949336 19.06674318 26.50643494 19.07543945 28.95336914 C19.08767252 32.4858473 19.0932665 36.01828565 19.09765625 39.55078125 C19.10281754 40.63144363 19.10797882 41.71210602 19.11329651 42.82551575 C19.11378947 49.61479941 18.70638077 56.24660879 18 63 C12.72 63 7.44 63 2 63 C1.34 42.21 0.68 21.42 0 0 Z " fill="#5F82F9" transform="translate(209,180)"/>
<path d="M0 0 C4.50162917 2.29030256 4.50162917 2.29030256 6 5 C6.48609734 8.7215194 6.35268032 12.27073217 6 16 C5.34 16 4.68 16 4 16 C4 16.66 4 17.32 4 18 C3.34 18 2.68 18 2 18 C2 18.66 2 19.32 2 20 C-6.97830935 21.44698966 -6.97830935 21.44698966 -11 19.6875 C-14.91253644 16.38629738 -14.91253644 16.38629738 -15.75 12.6875 C-16.00749561 8.88943969 -15.92208916 7.2326045 -14 4 C-9.94753069 -0.54367771 -5.77008782 -1.11352572 0 0 Z " fill="#5A7AE5" transform="translate(224,251)"/>
<path d="M0 0 C3.45879534 -0.08064549 6.91572741 -0.1403281 10.375 -0.1875 C11.35984375 -0.21263672 12.3446875 -0.23777344 13.359375 -0.26367188 C14.77089844 -0.27817383 14.77089844 -0.27817383 16.2109375 -0.29296875 C17.08024902 -0.3086792 17.94956055 -0.32438965 18.84521484 -0.34057617 C19.55629395 -0.22818604 20.26737305 -0.1157959 21 0 C23.42130331 3.63195496 23.21022785 5.38349348 23.125 9.6875 C23.10695313 10.86699219 23.08890625 12.04648437 23.0703125 13.26171875 C23.04710937 14.16535156 23.02390625 15.06898438 23 16 C21.02 16 19.04 16 17 16 C16.67 12.37 16.34 8.74 16 5 C15.67 5 15.34 5 15 5 C14.67 8.63 14.34 12.26 14 16 C12.35 16 10.7 16 9 16 C9 12.37 9 8.74 9 5 C7.68 5 6.36 5 5 5 C5 8.63 5 12.26 5 16 C3.35 16 1.7 16 0 16 C0 10.72 0 5.44 0 0 Z " fill="#ADADAD" transform="translate(358,272)"/>
<path d="M0 0 C1.32 0 2.64 0 4 0 C4 20.13 4 40.26 4 61 C7.96 61 11.92 61 16 61 C16.33 49.78 16.66 38.56 17 27 C17.66 26.67 18.32 26.34 19 26 C19.02944154 30.10415117 19.04694527 34.20827456 19.0625 38.3125 C19.07087891 39.46041016 19.07925781 40.60832031 19.08789062 41.79101562 C19.10812243 48.93284446 18.75860292 55.89780414 18 63 C12.72 63 7.44 63 2 63 C1.34 42.21 0.68 21.42 0 0 Z " fill="#4B5FA9" transform="translate(209,180)"/>
<path d="M0 0 C0.33 0.66 0.66 1.32 1 2 C8.26 2 15.52 2 23 2 C23 6.29 23 10.58 23 15 C19.37 15.33 15.74 15.66 12 16 C11.67 22.27 11.34 28.54 11 35 C10.67 35 10.34 35 10 35 C9.97111854 31.68751813 9.95324201 28.37506833 9.9375 25.0625 C9.92912109 24.11697266 9.92074219 23.17144531 9.91210938 22.19726562 C9.90888672 21.29814453 9.90566406 20.39902344 9.90234375 19.47265625 C9.89710693 18.64000244 9.89187012 17.80734863 9.88647461 16.94946289 C10 15 10 15 11 14 C14.6691577 13.85689713 18.32715441 13.95778338 22 14 C22 10.37 22 6.74 22 3 C14.08 3 6.16 3 -2 3 C-2 28.74 -2 54.48 -2 81 C6.25 81 14.5 81 23 81 C23 77.04 23 73.08 23 69 C18.71 69 14.42 69 10 69 C10 68.67 10 68.34 10 68 C14.62 68 19.24 68 24 68 C24 72.62 24 77.24 24 82 C15.09 82 6.18 82 -3 82 C-3.02505615 79.71344482 -3.0501123 77.42688965 -3.07592773 75.07104492 C-3.15933738 67.5232858 -3.24803158 59.97559548 -3.33933926 52.42792797 C-3.3945458 47.85098367 -3.44796222 43.27403295 -3.49731445 38.69702148 C-3.5449914 34.28144544 -3.5973355 29.86594732 -3.65294075 25.45046425 C-3.67334919 23.76435596 -3.69206478 22.07822631 -3.70907402 20.39208031 C-3.73315145 18.03368779 -3.76320145 15.6754424 -3.79467773 13.31713867 C-3.8004332 12.61726837 -3.80618866 11.91739807 -3.81211853 11.19631958 C-3.85779654 8.19306117 -4.04208292 5.87375125 -5 3 C-3.35 2.01 -1.7 1.02 0 0 Z " fill="#585858" transform="translate(85,178)"/>
<path d="M0 0 C1.65 0 3.3 0 5 0 C5.19491452 1.45736087 5.38069358 2.91594593 5.5625 4.375 C5.66691406 5.18710937 5.77132813 5.99921875 5.87890625 6.8359375 C6 9 6 9 5 11 C5.99 11 6.98 11 8 11 C8 7.37 8 3.74 8 0 C9.98 0 11.96 0 14 0 C14 5.28 14 10.56 14 16 C4.8203125 16.1953125 4.8203125 16.1953125 2 16 C0 14 0 14 -0.1953125 10.7421875 C-0.17210937 9.46601563 -0.14890625 8.18984375 -0.125 6.875 C-0.10695313 5.59367187 -0.08890625 4.31234375 -0.0703125 2.9921875 C-0.04710937 2.00476563 -0.02390625 1.01734375 0 0 Z " fill="#9C9D9C" transform="translate(383,272)"/>
<path d="M0 0 C1.21816406 0.03480469 1.21816406 0.03480469 2.4609375 0.0703125 C3.68683594 0.09738281 3.68683594 0.09738281 4.9375 0.125 C5.87722656 0.15980469 5.87722656 0.15980469 6.8359375 0.1953125 C6.8359375 0.8553125 6.8359375 1.5153125 6.8359375 2.1953125 C7.4959375 2.1953125 8.1559375 2.1953125 8.8359375 2.1953125 C8.1759375 3.5153125 7.5159375 4.8353125 6.8359375 6.1953125 C7.4959375 6.8553125 8.1559375 7.5153125 8.8359375 8.1953125 C9.18725321 10.93557503 9.18013625 12.57145226 7.8359375 15.0078125 C4.54914567 16.95934515 1.6145678 16.43522554 -2.1640625 16.1953125 C-2.8240625 15.8653125 -3.4840625 15.5353125 -4.1640625 15.1953125 C-4.1640625 11.1953125 -4.1640625 11.1953125 -2.1640625 9.1953125 C-2.8240625 8.8653125 -3.4840625 8.5353125 -4.1640625 8.1953125 C-4.2890625 5.3203125 -4.2890625 5.3203125 -4.1640625 2.1953125 C-2.1640625 0.1953125 -2.1640625 0.1953125 0 0 Z " fill="#D7D8D8" transform="translate(403.1640625,271.8046875)"/>
<path d="M0 0 C2 2 2 2 2 5 C-1.32534757 6.10844919 -3.62182575 5.84454356 -7 5 C-6.67 6.65 -6.34 8.3 -6 10 C-4.02 9.67 -2.04 9.34 0 9 C0 9.66 0 10.32 0 11 C0.66 11 1.32 11 2 11 C2 11.99 2 12.98 2 14 C-1.75047482 16.50031654 -3.55856266 16.53603554 -8 16 C-10.9375 13.9375 -10.9375 13.9375 -13 11 C-13.6198676 7.07417186 -13.58925458 4.99917081 -11.5625 1.5625 C-7.86621203 -0.69133413 -4.23670507 -0.70339119 0 0 Z " fill="#BFBFBF" transform="translate(433,272)"/>
<path d="M0 0 C1.65 0 3.3 0 5 0 C5 5.28 5 10.56 5 16 C3.35 16 1.7 16 0 16 C0 10.72 0 5.44 0 0 Z " fill="#D6D7D7" transform="translate(413,272)"/>
<path d="M0 0 C1.65 0 3.3 0 5 0 C5 4.95 5 9.9 5 15 C3.68 15 2.36 15 1 15 C-0.44207941 12.11584117 -0.09394887 9.58278472 -0.0625 6.375 C-0.05347656 5.18648438 -0.04445313 3.99796875 -0.03515625 2.7734375 C-0.02355469 1.85820312 -0.01195312 0.94296875 0 0 Z " fill="#BABCBB" transform="translate(391,272)"/>
<path d="M0 0 C2.33944736 0.28730055 4.6739143 0.61936779 7 1 C7 5.29 7 9.58 7 14 C5.68 14 4.36 14 3 14 C2.96261719 13.22914063 2.92523438 12.45828125 2.88671875 11.6640625 C2.82097656 10.66117187 2.75523437 9.65828125 2.6875 8.625 C2.62949219 7.62726563 2.57148438 6.62953125 2.51171875 5.6015625 C2.34285156 4.74304688 2.17398437 3.88453125 2 3 C1.01 2.34 0.02 1.68 -1 1 C-0.67 0.67 -0.34 0.34 0 0 Z " fill="#FAFAFA" transform="translate(373,273)"/>
<path d="M0 0 C0 0.99 0 1.98 0 3 C0.66 3 1.32 3 2 3 C2 4.32 2 5.64 2 7 C-5.75 7.125 -5.75 7.125 -8 6 C-8 4.68 -8 3.36 -8 2 C-4.91190305 0.23537317 -3.76687864 0 0 0 Z " fill="#B8B8B8" transform="translate(407,281)"/>
<path d="M0 0 C2.31 0 4.62 0 7 0 C7 0.66 7 1.32 7 2 C6.01 2.66 5.02 3.32 4 4 C3.41810734 6.42521494 3.41810734 6.42521494 3.3125 9.125 C3.24675781 10.03507812 3.18101562 10.94515625 3.11328125 11.8828125 C3.07589844 12.58148438 3.03851563 13.28015625 3 14 C2.01 14 1.02 14 0 14 C0 9.38 0 4.76 0 0 Z " fill="#FBFBFB" transform="translate(359,273)"/>
<path d="M0 0 C1.20462891 -0.02126953 1.20462891 -0.02126953 2.43359375 -0.04296875 C4.5625 0.1875 4.5625 0.1875 6.5625 2.1875 C6.5625 3.1775 6.5625 4.1675 6.5625 5.1875 C3.50986336 6.16870464 1.61513664 6.16870464 -1.4375 5.1875 C-1.4375 4.1975 -1.4375 3.2075 -1.4375 2.1875 C-2.7575 1.8575 -4.0775 1.5275 -5.4375 1.1875 C-3.84855928 -0.40144072 -2.18948576 0.01751589 0 0 Z " fill="#B9B9B9" transform="translate(428.4375,271.8125)"/>
<path d="M0 0 C0.66 0.33 1.32 0.66 2 1 C2 3.64 2 6.28 2 9 C0.68 9 -0.64 9 -2 9 C-2.6875 6.75 -2.6875 6.75 -3 4 C-1.5625 1.6875 -1.5625 1.6875 0 0 Z " fill="#F8FAF9" transform="translate(394,278)"/>
<path d="M0 0 C2.5625 2 2.5625 2 4 4 C-3.38461538 4.36923077 -3.38461538 4.36923077 -6.5 2.5 C-6.995 2.005 -7.49 1.51 -8 1 C-8.33 1.66 -8.66 2.32 -9 3 C-9.66 2.34 -10.32 1.68 -11 1 C-7.55789151 -0.72105424 -3.76366353 -0.51474617 0 0 Z " fill="#4962B0" transform="translate(224,251)"/>
<path d="M0 0 C1.485 0.99 1.485 0.99 3 2 C3.66 1.67 4.32 1.34 5 1 C5.66 2.98 6.32 4.96 7 7 C6.01 7 5.02 7 4 7 C3.67 7.66 3.34 8.32 3 9 C0.23776722 6.23776722 0.42143709 3.79293383 0 0 Z " fill="#4A62B6" transform="translate(208,260)"/>
<path d="M0 0 C1.32 0 2.64 0 4 0 C4 0.66 4 1.32 4 2 C4.66 2 5.32 2 6 2 C5.67 2.99 5.34 3.98 5 5 C2.69 5.33 0.38 5.66 -2 6 C-2 5.01 -2 4.02 -2 3 C-1.01 2.67 -0.02 2.34 1 2 C0.67 1.34 0.34 0.68 0 0 Z " fill="#959796" transform="translate(406,272)"/>
<path d="M0 0 C0.99 0 1.98 0 3 0 C3 2.64 3 5.28 3 8 C2.01 8.33 1.02 8.66 0 9 C0 6.03 0 3.06 0 0 Z " fill="#F8F8F8" transform="translate(384,272)"/>
<path d="M0 0 C1.65 0 3.3 0 5 0 C5 1.65 5 3.3 5 5 C3.35 4.67 1.7 4.34 0 4 C0 2.68 0 1.36 0 0 Z " fill="#C1C1C1" transform="translate(413,266)"/>
<path d="M0 0 C0.33 0.66 0.66 1.32 1 2 C2.98 2 4.96 2 7 2 C7 2.33 7 2.66 7 3 C4.03 3 1.06 3 -2 3 C-2 3.99 -2 4.98 -2 6 C-2.99 5.67 -3.98 5.34 -5 5 C-5 4.34 -5 3.68 -5 3 C-2.5 1.375 -2.5 1.375 0 0 Z " fill="#606060" transform="translate(85,178)"/>
<path d="M0 0 C0.66 0.33 1.32 0.66 2 1 C-0.69648689 3.69648689 -3.66611962 5.14784424 -7 7 C-5.55609075 3.19333016 -3.65047197 1.73397418 0 0 Z " fill="#A3A3A3" transform="translate(415,179)"/>
<path d="M0 0 C1.32 0 2.64 0 4 0 C4 1.65 4 3.3 4 5 C2.35 5 0.7 5 -1 5 C-0.67 3.35 -0.34 1.7 0 0 Z " fill="#6385F8" transform="translate(218,266)"/>
<path d="M0 0 C0.99 0.33 1.98 0.66 3 1 C3.33 2.65 3.66 4.3 4 6 C3.01 6 2.02 6 1 6 C-0.0625 4.125 -0.0625 4.125 -1 2 C-0.67 1.34 -0.34 0.68 0 0 Z " fill="#6682F1" transform="translate(210,257)"/>
<path d="" fill="#000000" transform="translate(0,0)"/>
<path d="" fill="#000000" transform="translate(0,0)"/>
<path d="" fill="#000000" transform="translate(0,0)"/>
<path d="" fill="#000000" transform="translate(0,0)"/>
<path d="" fill="#000000" transform="translate(0,0)"/>
<path d="" fill="#000000" transform="translate(0,0)"/>
<path d="" fill="#000000" transform="translate(0,0)"/>
<path d="" fill="#000000" transform="translate(0,0)"/>
<path d="" fill="#000000" transform="translate(0,0)"/>
<path d="" fill="#000000" transform="translate(0,0)"/>
<path d="" fill="#000000" transform="translate(0,0)"/>
<path d="" fill="#000000" transform="translate(0,0)"/>
<path d="" fill="#000000" transform="translate(0,0)"/>
<path d="" fill="#000000" transform="translate(0,0)"/>
<path d="" fill="#000000" transform="translate(0,0)"/>
<path d="" fill="#000000" transform="translate(0,0)"/>
<path d="" fill="#000000" transform="translate(0,0)"/>
<path d="" fill="#000000" transform="translate(0,0)"/>
<path d="" fill="#000000" transform="translate(0,0)"/>
<path d="" fill="#000000" transform="translate(0,0)"/>
<path d="" fill="#000000" transform="translate(0,0)"/>
<path d="" fill="#000000" transform="translate(0,0)"/>
<path d="" fill="#000000" transform="translate(0,0)"/>
<path d="" fill="#000000" transform="translate(0,0)"/>
<path d="" fill="#000000" transform="translate(0,0)"/>
<path d="" fill="#000000" transform="translate(0,0)"/>
<path d="" fill="#000000" transform="translate(0,0)"/>
<path d="" fill="#000000" transform="translate(0,0)"/>
<path d="" fill="#000000" transform="translate(0,0)"/>
<path d="" fill="#000000" transform="translate(0,0)"/>
<path d="" fill="#000000" transform="translate(0,0)"/>
<path d="" fill="#000000" transform="translate(0,0)"/>
<path d="" fill="#000000" transform="translate(0,0)"/>
<path d="" fill="#000000" transform="translate(0,0)"/>
<path d="" fill="#000000" transform="translate(0,0)"/>
<path d="" fill="#000000" transform="translate(0,0)"/>
<path d="" fill="#000000" transform="translate(0,0)"/>
<path d="" fill="#000000" transform="translate(0,0)"/>
<path d="" fill="#000000" transform="translate(0,0)"/>
<path d="" fill="#000000" transform="translate(0,0)"/>
<path d="" fill="#000000" transform="translate(0,0)"/>
<path d="" fill="#000000" transform="translate(0,0)"/>
<path d="" fill="#000000" transform="translate(0,0)"/>
<path d="" fill="#000000" transform="translate(0,0)"/>
<path d="" fill="#000000" transform="translate(0,0)"/>
<path d="" fill="#000000" transform="translate(0,0)"/>
<path d="" fill="#000000" transform="translate(0,0)"/>
<path d="" fill="#000000" transform="translate(0,0)"/>
<path d="" fill="#000000" transform="translate(0,0)"/>
<path d="" fill="#000000" transform="translate(0,0)"/>
<path d="" fill="#000000" transform="translate(0,0)"/>
<path d="" fill="#000000" transform="translate(0,0)"/>
<path d="" fill="#000000" transform="translate(0,0)"/>
<path d="" fill="#000000" transform="translate(0,0)"/>
<path d="" fill="#000000" transform="translate(0,0)"/>
<path d="" fill="#000000" transform="translate(0,0)"/>
<path d="" fill="#000000" transform="translate(0,0)"/>
<path d="" fill="#000000" transform="translate(0,0)"/>
<path d="" fill="#000000" transform="translate(0,0)"/>
<path d="" fill="#000000" transform="translate(0,0)"/>
<path d="" fill="#000000" transform="translate(0,0)"/>
<path d="" fill="#000000" transform="translate(0,0)"/>
<path d="" fill="#000000" transform="translate(0,0)"/>
<path d="" fill="#000000" transform="translate(0,0)"/>
<path d="" fill="#000000" transform="translate(0,0)"/>
<path d="" fill="#000000" transform="translate(0,0)"/>
<path d="" fill="#000000" transform="translate(0,0)"/>
<path d="" fill="#000000" transform="translate(0,0)"/>
<path d="" fill="#000000" transform="translate(0,0)"/>
<path d="" fill="#000000" transform="translate(0,0)"/>
<path d="" fill="#000000" transform="translate(0,0)"/>
<path d="" fill="#000000" transform="translate(0,0)"/>
<path d="" fill="#000000" transform="translate(0,0)"/>
<path d="" fill="#000000" transform="translate(0,0)"/>
<path d="" fill="#000000" transform="translate(0,0)"/>
<path d="" fill="#000000" transform="translate(0,0)"/>
<path d="" fill="#000000" transform="translate(0,0)"/>
<path d="" fill="#000000" transform="translate(0,0)"/>
<path d="" fill="#000000" transform="translate(0,0)"/>
<path d="" fill="#000000" transform="translate(0,0)"/>
<path d="" fill="#000000" transform="translate(0,0)"/>
<path d="" fill="#000000" transform="translate(0,0)"/>
<path d="" fill="#000000" transform="translate(0,0)"/>
<path d="" fill="#000000" transform="translate(0,0)"/>
<path d="" fill="#000000" transform="translate(0,0)"/>
<path d="" fill="#000000" transform="translate(0,0)"/>
<path d="" fill="#000000" transform="translate(0,0)"/>
<path d="" fill="#000000" transform="translate(0,0)"/>
<path d="" fill="#000000" transform="translate(0,0)"/>
<path d="" fill="#000000" transform="translate(0,0)"/>
<path d="" fill="#000000" transform="translate(0,0)"/>
</svg>
